<mxfile host="app.diagrams.net" modified="2020-10-07T18:32:14.167Z" agent="5.0 (Windows NT 10.0; Win64; x64) AppleWebKit/537.36 (KHTML, like Gecko) Chrome/85.0.4183.121 Safari/537.36" etag="1d2wWacQlkQlu-4sZo_8" version="13.7.8" type="github">
  <diagram id="lLcTrukfohvsVUiECDiL" name="Page-1">
    <mxGraphModel dx="868" dy="450" grid="1" gridSize="10" guides="1" tooltips="1" connect="1" arrows="1" fold="1" page="1" pageScale="1" pageWidth="827" pageHeight="1169" math="0" shadow="0">
      <root>
        <mxCell id="0" />
        <mxCell id="1" parent="0" />
        <mxCell id="R1xmuKj7O7OPyHqkPT0U-14" value="Aluno" style="shape=table;startSize=30;container=1;collapsible=1;childLayout=tableLayout;fixedRows=1;rowLines=0;fontStyle=1;align=center;resizeLast=1;" vertex="1" parent="1">
          <mxGeometry x="20" y="30" width="180" height="220" as="geometry" />
        </mxCell>
        <mxCell id="R1xmuKj7O7OPyHqkPT0U-15" value="" style="shape=partialRectangle;collapsible=0;dropTarget=0;pointerEvents=0;fillColor=none;top=0;left=0;bottom=1;right=0;points=[[0,0.5],[1,0.5]];portConstraint=eastwest;" vertex="1" parent="R1xmuKj7O7OPyHqkPT0U-14">
          <mxGeometry y="30" width="180" height="30" as="geometry" />
        </mxCell>
        <mxCell id="R1xmuKj7O7OPyHqkPT0U-16" value="PK" style="shape=partialRectangle;connectable=0;fillColor=none;top=0;left=0;bottom=0;right=0;fontStyle=1;overflow=hidden;" vertex="1" parent="R1xmuKj7O7OPyHqkPT0U-15">
          <mxGeometry width="30" height="30" as="geometry" />
        </mxCell>
        <mxCell id="R1xmuKj7O7OPyHqkPT0U-17" value="cod-aluno" style="shape=partialRectangle;connectable=0;fillColor=none;top=0;left=0;bottom=0;right=0;align=left;spacingLeft=6;fontStyle=5;overflow=hidden;" vertex="1" parent="R1xmuKj7O7OPyHqkPT0U-15">
          <mxGeometry x="30" width="150" height="30" as="geometry" />
        </mxCell>
        <mxCell id="R1xmuKj7O7OPyHqkPT0U-18" value="" style="shape=partialRectangle;collapsible=0;dropTarget=0;pointerEvents=0;fillColor=none;top=0;left=0;bottom=0;right=0;points=[[0,0.5],[1,0.5]];portConstraint=eastwest;" vertex="1" parent="R1xmuKj7O7OPyHqkPT0U-14">
          <mxGeometry y="60" width="180" height="30" as="geometry" />
        </mxCell>
        <mxCell id="R1xmuKj7O7OPyHqkPT0U-19" value="" style="shape=partialRectangle;connectable=0;fillColor=none;top=0;left=0;bottom=0;right=0;editable=1;overflow=hidden;" vertex="1" parent="R1xmuKj7O7OPyHqkPT0U-18">
          <mxGeometry width="30" height="30" as="geometry" />
        </mxCell>
        <mxCell id="R1xmuKj7O7OPyHqkPT0U-20" value="nome" style="shape=partialRectangle;connectable=0;fillColor=none;top=0;left=0;bottom=0;right=0;align=left;spacingLeft=6;overflow=hidden;" vertex="1" parent="R1xmuKj7O7OPyHqkPT0U-18">
          <mxGeometry x="30" width="150" height="30" as="geometry" />
        </mxCell>
        <mxCell id="R1xmuKj7O7OPyHqkPT0U-21" value="" style="shape=partialRectangle;collapsible=0;dropTarget=0;pointerEvents=0;fillColor=none;top=0;left=0;bottom=0;right=0;points=[[0,0.5],[1,0.5]];portConstraint=eastwest;" vertex="1" parent="R1xmuKj7O7OPyHqkPT0U-14">
          <mxGeometry y="90" width="180" height="30" as="geometry" />
        </mxCell>
        <mxCell id="R1xmuKj7O7OPyHqkPT0U-22" value="" style="shape=partialRectangle;connectable=0;fillColor=none;top=0;left=0;bottom=0;right=0;editable=1;overflow=hidden;" vertex="1" parent="R1xmuKj7O7OPyHqkPT0U-21">
          <mxGeometry width="30" height="30" as="geometry" />
        </mxCell>
        <mxCell id="R1xmuKj7O7OPyHqkPT0U-23" value="endereco" style="shape=partialRectangle;connectable=0;fillColor=none;top=0;left=0;bottom=0;right=0;align=left;spacingLeft=6;overflow=hidden;" vertex="1" parent="R1xmuKj7O7OPyHqkPT0U-21">
          <mxGeometry x="30" width="150" height="30" as="geometry" />
        </mxCell>
        <mxCell id="R1xmuKj7O7OPyHqkPT0U-24" value="" style="shape=partialRectangle;collapsible=0;dropTarget=0;pointerEvents=0;fillColor=none;top=0;left=0;bottom=0;right=0;points=[[0,0.5],[1,0.5]];portConstraint=eastwest;" vertex="1" parent="R1xmuKj7O7OPyHqkPT0U-14">
          <mxGeometry y="120" width="180" height="30" as="geometry" />
        </mxCell>
        <mxCell id="R1xmuKj7O7OPyHqkPT0U-25" value="" style="shape=partialRectangle;connectable=0;fillColor=none;top=0;left=0;bottom=0;right=0;editable=1;overflow=hidden;" vertex="1" parent="R1xmuKj7O7OPyHqkPT0U-24">
          <mxGeometry width="30" height="30" as="geometry" />
        </mxCell>
        <mxCell id="R1xmuKj7O7OPyHqkPT0U-26" value="dt_nasc" style="shape=partialRectangle;connectable=0;fillColor=none;top=0;left=0;bottom=0;right=0;align=left;spacingLeft=6;overflow=hidden;" vertex="1" parent="R1xmuKj7O7OPyHqkPT0U-24">
          <mxGeometry x="30" width="150" height="30" as="geometry" />
        </mxCell>
        <mxCell id="R1xmuKj7O7OPyHqkPT0U-27" value="" style="shape=partialRectangle;collapsible=0;dropTarget=0;pointerEvents=0;fillColor=none;top=0;left=0;bottom=0;right=0;points=[[0,0.5],[1,0.5]];portConstraint=eastwest;" vertex="1" parent="R1xmuKj7O7OPyHqkPT0U-14">
          <mxGeometry y="150" width="180" height="30" as="geometry" />
        </mxCell>
        <mxCell id="R1xmuKj7O7OPyHqkPT0U-28" value="" style="shape=partialRectangle;connectable=0;fillColor=none;top=0;left=0;bottom=0;right=0;editable=1;overflow=hidden;" vertex="1" parent="R1xmuKj7O7OPyHqkPT0U-27">
          <mxGeometry width="30" height="30" as="geometry" />
        </mxCell>
        <mxCell id="R1xmuKj7O7OPyHqkPT0U-29" value="cidade" style="shape=partialRectangle;connectable=0;fillColor=none;top=0;left=0;bottom=0;right=0;align=left;spacingLeft=6;overflow=hidden;" vertex="1" parent="R1xmuKj7O7OPyHqkPT0U-27">
          <mxGeometry x="30" width="150" height="30" as="geometry" />
        </mxCell>
        <mxCell id="R1xmuKj7O7OPyHqkPT0U-30" value="" style="shape=partialRectangle;collapsible=0;dropTarget=0;pointerEvents=0;fillColor=none;top=0;left=0;bottom=0;right=0;points=[[0,0.5],[1,0.5]];portConstraint=eastwest;" vertex="1" parent="R1xmuKj7O7OPyHqkPT0U-14">
          <mxGeometry y="180" width="180" height="30" as="geometry" />
        </mxCell>
        <mxCell id="R1xmuKj7O7OPyHqkPT0U-31" value="" style="shape=partialRectangle;connectable=0;fillColor=none;top=0;left=0;bottom=0;right=0;editable=1;overflow=hidden;" vertex="1" parent="R1xmuKj7O7OPyHqkPT0U-30">
          <mxGeometry width="30" height="30" as="geometry" />
        </mxCell>
        <mxCell id="R1xmuKj7O7OPyHqkPT0U-32" value="telefone" style="shape=partialRectangle;connectable=0;fillColor=none;top=0;left=0;bottom=0;right=0;align=left;spacingLeft=6;overflow=hidden;" vertex="1" parent="R1xmuKj7O7OPyHqkPT0U-30">
          <mxGeometry x="30" width="150" height="30" as="geometry" />
        </mxCell>
        <mxCell id="R1xmuKj7O7OPyHqkPT0U-33" value="Pacote" style="shape=table;startSize=30;container=1;collapsible=1;childLayout=tableLayout;fixedRows=1;rowLines=0;fontStyle=1;align=center;resizeLast=1;" vertex="1" parent="1">
          <mxGeometry x="600" y="30" width="180" height="190" as="geometry" />
        </mxCell>
        <mxCell id="R1xmuKj7O7OPyHqkPT0U-34" value="" style="shape=partialRectangle;collapsible=0;dropTarget=0;pointerEvents=0;fillColor=none;top=0;left=0;bottom=1;right=0;points=[[0,0.5],[1,0.5]];portConstraint=eastwest;" vertex="1" parent="R1xmuKj7O7OPyHqkPT0U-33">
          <mxGeometry y="30" width="180" height="30" as="geometry" />
        </mxCell>
        <mxCell id="R1xmuKj7O7OPyHqkPT0U-35" value="PK" style="shape=partialRectangle;connectable=0;fillColor=none;top=0;left=0;bottom=0;right=0;fontStyle=1;overflow=hidden;" vertex="1" parent="R1xmuKj7O7OPyHqkPT0U-34">
          <mxGeometry width="30" height="30" as="geometry" />
        </mxCell>
        <mxCell id="R1xmuKj7O7OPyHqkPT0U-36" value="cod_pacote" style="shape=partialRectangle;connectable=0;fillColor=none;top=0;left=0;bottom=0;right=0;align=left;spacingLeft=6;fontStyle=5;overflow=hidden;" vertex="1" parent="R1xmuKj7O7OPyHqkPT0U-34">
          <mxGeometry x="30" width="150" height="30" as="geometry" />
        </mxCell>
        <mxCell id="R1xmuKj7O7OPyHqkPT0U-37" value="" style="shape=partialRectangle;collapsible=0;dropTarget=0;pointerEvents=0;fillColor=none;top=0;left=0;bottom=0;right=0;points=[[0,0.5],[1,0.5]];portConstraint=eastwest;" vertex="1" parent="R1xmuKj7O7OPyHqkPT0U-33">
          <mxGeometry y="60" width="180" height="30" as="geometry" />
        </mxCell>
        <mxCell id="R1xmuKj7O7OPyHqkPT0U-38" value="" style="shape=partialRectangle;connectable=0;fillColor=none;top=0;left=0;bottom=0;right=0;editable=1;overflow=hidden;" vertex="1" parent="R1xmuKj7O7OPyHqkPT0U-37">
          <mxGeometry width="30" height="30" as="geometry" />
        </mxCell>
        <mxCell id="R1xmuKj7O7OPyHqkPT0U-39" value="cod-curso" style="shape=partialRectangle;connectable=0;fillColor=none;top=0;left=0;bottom=0;right=0;align=left;spacingLeft=6;overflow=hidden;" vertex="1" parent="R1xmuKj7O7OPyHqkPT0U-37">
          <mxGeometry x="30" width="150" height="30" as="geometry" />
        </mxCell>
        <mxCell id="R1xmuKj7O7OPyHqkPT0U-40" value="" style="shape=partialRectangle;collapsible=0;dropTarget=0;pointerEvents=0;fillColor=none;top=0;left=0;bottom=0;right=0;points=[[0,0.5],[1,0.5]];portConstraint=eastwest;" vertex="1" parent="R1xmuKj7O7OPyHqkPT0U-33">
          <mxGeometry y="90" width="180" height="30" as="geometry" />
        </mxCell>
        <mxCell id="R1xmuKj7O7OPyHqkPT0U-41" value="" style="shape=partialRectangle;connectable=0;fillColor=none;top=0;left=0;bottom=0;right=0;editable=1;overflow=hidden;" vertex="1" parent="R1xmuKj7O7OPyHqkPT0U-40">
          <mxGeometry width="30" height="30" as="geometry" />
        </mxCell>
        <mxCell id="R1xmuKj7O7OPyHqkPT0U-42" value="nome" style="shape=partialRectangle;connectable=0;fillColor=none;top=0;left=0;bottom=0;right=0;align=left;spacingLeft=6;overflow=hidden;" vertex="1" parent="R1xmuKj7O7OPyHqkPT0U-40">
          <mxGeometry x="30" width="150" height="30" as="geometry" />
        </mxCell>
        <mxCell id="R1xmuKj7O7OPyHqkPT0U-43" value="" style="shape=partialRectangle;collapsible=0;dropTarget=0;pointerEvents=0;fillColor=none;top=0;left=0;bottom=0;right=0;points=[[0,0.5],[1,0.5]];portConstraint=eastwest;" vertex="1" parent="R1xmuKj7O7OPyHqkPT0U-33">
          <mxGeometry y="120" width="180" height="30" as="geometry" />
        </mxCell>
        <mxCell id="R1xmuKj7O7OPyHqkPT0U-44" value="" style="shape=partialRectangle;connectable=0;fillColor=none;top=0;left=0;bottom=0;right=0;editable=1;overflow=hidden;" vertex="1" parent="R1xmuKj7O7OPyHqkPT0U-43">
          <mxGeometry width="30" height="30" as="geometry" />
        </mxCell>
        <mxCell id="R1xmuKj7O7OPyHqkPT0U-45" value="num_aulas" style="shape=partialRectangle;connectable=0;fillColor=none;top=0;left=0;bottom=0;right=0;align=left;spacingLeft=6;overflow=hidden;" vertex="1" parent="R1xmuKj7O7OPyHqkPT0U-43">
          <mxGeometry x="30" width="150" height="30" as="geometry" />
        </mxCell>
        <mxCell id="R1xmuKj7O7OPyHqkPT0U-46" value="" style="shape=partialRectangle;collapsible=0;dropTarget=0;pointerEvents=0;fillColor=none;top=0;left=0;bottom=0;right=0;points=[[0,0.5],[1,0.5]];portConstraint=eastwest;" vertex="1" parent="R1xmuKj7O7OPyHqkPT0U-33">
          <mxGeometry y="150" width="180" height="30" as="geometry" />
        </mxCell>
        <mxCell id="R1xmuKj7O7OPyHqkPT0U-47" value="" style="shape=partialRectangle;connectable=0;fillColor=none;top=0;left=0;bottom=0;right=0;editable=1;overflow=hidden;" vertex="1" parent="R1xmuKj7O7OPyHqkPT0U-46">
          <mxGeometry width="30" height="30" as="geometry" />
        </mxCell>
        <mxCell id="R1xmuKj7O7OPyHqkPT0U-48" value="valor" style="shape=partialRectangle;connectable=0;fillColor=none;top=0;left=0;bottom=0;right=0;align=left;spacingLeft=6;overflow=hidden;" vertex="1" parent="R1xmuKj7O7OPyHqkPT0U-46">
          <mxGeometry x="30" width="150" height="30" as="geometry" />
        </mxCell>
        <mxCell id="R1xmuKj7O7OPyHqkPT0U-1" value="Curso" style="shape=table;startSize=30;container=1;collapsible=1;childLayout=tableLayout;fixedRows=1;rowLines=0;fontStyle=1;align=center;resizeLast=1;" vertex="1" parent="1">
          <mxGeometry x="600" y="300" width="180" height="120" as="geometry" />
        </mxCell>
        <mxCell id="R1xmuKj7O7OPyHqkPT0U-2" value="" style="shape=partialRectangle;collapsible=0;dropTarget=0;pointerEvents=0;fillColor=none;top=0;left=0;bottom=1;right=0;points=[[0,0.5],[1,0.5]];portConstraint=eastwest;" vertex="1" parent="R1xmuKj7O7OPyHqkPT0U-1">
          <mxGeometry y="30" width="180" height="30" as="geometry" />
        </mxCell>
        <mxCell id="R1xmuKj7O7OPyHqkPT0U-3" value="PK" style="shape=partialRectangle;connectable=0;fillColor=none;top=0;left=0;bottom=0;right=0;fontStyle=1;overflow=hidden;" vertex="1" parent="R1xmuKj7O7OPyHqkPT0U-2">
          <mxGeometry width="30" height="30" as="geometry" />
        </mxCell>
        <mxCell id="R1xmuKj7O7OPyHqkPT0U-4" value="cod-curso" style="shape=partialRectangle;connectable=0;fillColor=none;top=0;left=0;bottom=0;right=0;align=left;spacingLeft=6;fontStyle=5;overflow=hidden;" vertex="1" parent="R1xmuKj7O7OPyHqkPT0U-2">
          <mxGeometry x="30" width="150" height="30" as="geometry" />
        </mxCell>
        <mxCell id="R1xmuKj7O7OPyHqkPT0U-5" value="" style="shape=partialRectangle;collapsible=0;dropTarget=0;pointerEvents=0;fillColor=none;top=0;left=0;bottom=0;right=0;points=[[0,0.5],[1,0.5]];portConstraint=eastwest;" vertex="1" parent="R1xmuKj7O7OPyHqkPT0U-1">
          <mxGeometry y="60" width="180" height="30" as="geometry" />
        </mxCell>
        <mxCell id="R1xmuKj7O7OPyHqkPT0U-6" value="" style="shape=partialRectangle;connectable=0;fillColor=none;top=0;left=0;bottom=0;right=0;editable=1;overflow=hidden;" vertex="1" parent="R1xmuKj7O7OPyHqkPT0U-5">
          <mxGeometry width="30" height="30" as="geometry" />
        </mxCell>
        <mxCell id="R1xmuKj7O7OPyHqkPT0U-7" value="nome" style="shape=partialRectangle;connectable=0;fillColor=none;top=0;left=0;bottom=0;right=0;align=left;spacingLeft=6;overflow=hidden;" vertex="1" parent="R1xmuKj7O7OPyHqkPT0U-5">
          <mxGeometry x="30" width="150" height="30" as="geometry" />
        </mxCell>
        <mxCell id="R1xmuKj7O7OPyHqkPT0U-8" value="" style="shape=partialRectangle;collapsible=0;dropTarget=0;pointerEvents=0;fillColor=none;top=0;left=0;bottom=0;right=0;points=[[0,0.5],[1,0.5]];portConstraint=eastwest;" vertex="1" parent="R1xmuKj7O7OPyHqkPT0U-1">
          <mxGeometry y="90" width="180" height="30" as="geometry" />
        </mxCell>
        <mxCell id="R1xmuKj7O7OPyHqkPT0U-9" value="" style="shape=partialRectangle;connectable=0;fillColor=none;top=0;left=0;bottom=0;right=0;editable=1;overflow=hidden;" vertex="1" parent="R1xmuKj7O7OPyHqkPT0U-8">
          <mxGeometry width="30" height="30" as="geometry" />
        </mxCell>
        <mxCell id="R1xmuKj7O7OPyHqkPT0U-10" value="professor" style="shape=partialRectangle;connectable=0;fillColor=none;top=0;left=0;bottom=0;right=0;align=left;spacingLeft=6;overflow=hidden;" vertex="1" parent="R1xmuKj7O7OPyHqkPT0U-8">
          <mxGeometry x="30" width="150" height="30" as="geometry" />
        </mxCell>
        <mxCell id="R1xmuKj7O7OPyHqkPT0U-74" style="edgeStyle=orthogonalEdgeStyle;rounded=0;orthogonalLoop=1;jettySize=auto;html=1;exitX=1;exitY=0.5;exitDx=0;exitDy=0;" edge="1" parent="1" source="R1xmuKj7O7OPyHqkPT0U-15" target="R1xmuKj7O7OPyHqkPT0U-71">
          <mxGeometry relative="1" as="geometry" />
        </mxCell>
        <mxCell id="R1xmuKj7O7OPyHqkPT0U-75" style="edgeStyle=orthogonalEdgeStyle;rounded=0;orthogonalLoop=1;jettySize=auto;html=1;exitX=0;exitY=0.5;exitDx=0;exitDy=0;" edge="1" parent="1" source="R1xmuKj7O7OPyHqkPT0U-2">
          <mxGeometry relative="1" as="geometry">
            <mxPoint x="600" y="105" as="targetPoint" />
            <Array as="points">
              <mxPoint x="580" y="345" />
              <mxPoint x="580" y="105" />
            </Array>
          </mxGeometry>
        </mxCell>
        <mxCell id="R1xmuKj7O7OPyHqkPT0U-76" style="edgeStyle=orthogonalEdgeStyle;rounded=0;orthogonalLoop=1;jettySize=auto;html=1;exitX=0;exitY=0.5;exitDx=0;exitDy=0;entryX=1;entryY=0.5;entryDx=0;entryDy=0;" edge="1" parent="1" source="R1xmuKj7O7OPyHqkPT0U-34" target="R1xmuKj7O7OPyHqkPT0U-53">
          <mxGeometry relative="1" as="geometry" />
        </mxCell>
        <mxCell id="R1xmuKj7O7OPyHqkPT0U-49" value="Pagamento" style="shape=table;startSize=30;container=1;collapsible=1;childLayout=tableLayout;fixedRows=1;rowLines=0;fontStyle=1;align=center;resizeLast=1;" vertex="1" parent="1">
          <mxGeometry x="290" y="30" width="180" height="280" as="geometry" />
        </mxCell>
        <mxCell id="R1xmuKj7O7OPyHqkPT0U-50" value="" style="shape=partialRectangle;collapsible=0;dropTarget=0;pointerEvents=0;fillColor=none;top=0;left=0;bottom=1;right=0;points=[[0,0.5],[1,0.5]];portConstraint=eastwest;" vertex="1" parent="R1xmuKj7O7OPyHqkPT0U-49">
          <mxGeometry y="30" width="180" height="30" as="geometry" />
        </mxCell>
        <mxCell id="R1xmuKj7O7OPyHqkPT0U-51" value="PK" style="shape=partialRectangle;connectable=0;fillColor=none;top=0;left=0;bottom=0;right=0;fontStyle=1;overflow=hidden;" vertex="1" parent="R1xmuKj7O7OPyHqkPT0U-50">
          <mxGeometry width="30" height="30" as="geometry" />
        </mxCell>
        <mxCell id="R1xmuKj7O7OPyHqkPT0U-52" value="cod_pagamento" style="shape=partialRectangle;connectable=0;fillColor=none;top=0;left=0;bottom=0;right=0;align=left;spacingLeft=6;fontStyle=5;overflow=hidden;" vertex="1" parent="R1xmuKj7O7OPyHqkPT0U-50">
          <mxGeometry x="30" width="150" height="30" as="geometry" />
        </mxCell>
        <mxCell id="R1xmuKj7O7OPyHqkPT0U-53" value="" style="shape=partialRectangle;collapsible=0;dropTarget=0;pointerEvents=0;fillColor=none;top=0;left=0;bottom=0;right=0;points=[[0,0.5],[1,0.5]];portConstraint=eastwest;" vertex="1" parent="R1xmuKj7O7OPyHqkPT0U-49">
          <mxGeometry y="60" width="180" height="30" as="geometry" />
        </mxCell>
        <mxCell id="R1xmuKj7O7OPyHqkPT0U-54" value="" style="shape=partialRectangle;connectable=0;fillColor=none;top=0;left=0;bottom=0;right=0;editable=1;overflow=hidden;" vertex="1" parent="R1xmuKj7O7OPyHqkPT0U-53">
          <mxGeometry width="30" height="30" as="geometry" />
        </mxCell>
        <mxCell id="R1xmuKj7O7OPyHqkPT0U-55" value="cod_pacote" style="shape=partialRectangle;connectable=0;fillColor=none;top=0;left=0;bottom=0;right=0;align=left;spacingLeft=6;overflow=hidden;" vertex="1" parent="R1xmuKj7O7OPyHqkPT0U-53">
          <mxGeometry x="30" width="150" height="30" as="geometry" />
        </mxCell>
        <mxCell id="R1xmuKj7O7OPyHqkPT0U-56" value="" style="shape=partialRectangle;collapsible=0;dropTarget=0;pointerEvents=0;fillColor=none;top=0;left=0;bottom=0;right=0;points=[[0,0.5],[1,0.5]];portConstraint=eastwest;" vertex="1" parent="R1xmuKj7O7OPyHqkPT0U-49">
          <mxGeometry y="90" width="180" height="30" as="geometry" />
        </mxCell>
        <mxCell id="R1xmuKj7O7OPyHqkPT0U-57" value="" style="shape=partialRectangle;connectable=0;fillColor=none;top=0;left=0;bottom=0;right=0;editable=1;overflow=hidden;" vertex="1" parent="R1xmuKj7O7OPyHqkPT0U-56">
          <mxGeometry width="30" height="30" as="geometry" />
        </mxCell>
        <mxCell id="R1xmuKj7O7OPyHqkPT0U-58" value="parcela" style="shape=partialRectangle;connectable=0;fillColor=none;top=0;left=0;bottom=0;right=0;align=left;spacingLeft=6;overflow=hidden;" vertex="1" parent="R1xmuKj7O7OPyHqkPT0U-56">
          <mxGeometry x="30" width="150" height="30" as="geometry" />
        </mxCell>
        <mxCell id="R1xmuKj7O7OPyHqkPT0U-59" value="" style="shape=partialRectangle;collapsible=0;dropTarget=0;pointerEvents=0;fillColor=none;top=0;left=0;bottom=0;right=0;points=[[0,0.5],[1,0.5]];portConstraint=eastwest;" vertex="1" parent="R1xmuKj7O7OPyHqkPT0U-49">
          <mxGeometry y="120" width="180" height="30" as="geometry" />
        </mxCell>
        <mxCell id="R1xmuKj7O7OPyHqkPT0U-60" value="" style="shape=partialRectangle;connectable=0;fillColor=none;top=0;left=0;bottom=0;right=0;editable=1;overflow=hidden;" vertex="1" parent="R1xmuKj7O7OPyHqkPT0U-59">
          <mxGeometry width="30" height="30" as="geometry" />
        </mxCell>
        <mxCell id="R1xmuKj7O7OPyHqkPT0U-61" value="valor" style="shape=partialRectangle;connectable=0;fillColor=none;top=0;left=0;bottom=0;right=0;align=left;spacingLeft=6;overflow=hidden;" vertex="1" parent="R1xmuKj7O7OPyHqkPT0U-59">
          <mxGeometry x="30" width="150" height="30" as="geometry" />
        </mxCell>
        <mxCell id="R1xmuKj7O7OPyHqkPT0U-62" value="" style="shape=partialRectangle;collapsible=0;dropTarget=0;pointerEvents=0;fillColor=none;top=0;left=0;bottom=0;right=0;points=[[0,0.5],[1,0.5]];portConstraint=eastwest;" vertex="1" parent="R1xmuKj7O7OPyHqkPT0U-49">
          <mxGeometry y="150" width="180" height="30" as="geometry" />
        </mxCell>
        <mxCell id="R1xmuKj7O7OPyHqkPT0U-63" value="" style="shape=partialRectangle;connectable=0;fillColor=none;top=0;left=0;bottom=0;right=0;editable=1;overflow=hidden;" vertex="1" parent="R1xmuKj7O7OPyHqkPT0U-62">
          <mxGeometry width="30" height="30" as="geometry" />
        </mxCell>
        <mxCell id="R1xmuKj7O7OPyHqkPT0U-64" value="data_vencimento" style="shape=partialRectangle;connectable=0;fillColor=none;top=0;left=0;bottom=0;right=0;align=left;spacingLeft=6;overflow=hidden;" vertex="1" parent="R1xmuKj7O7OPyHqkPT0U-62">
          <mxGeometry x="30" width="150" height="30" as="geometry" />
        </mxCell>
        <mxCell id="R1xmuKj7O7OPyHqkPT0U-65" value="" style="shape=partialRectangle;collapsible=0;dropTarget=0;pointerEvents=0;fillColor=none;top=0;left=0;bottom=0;right=0;points=[[0,0.5],[1,0.5]];portConstraint=eastwest;" vertex="1" parent="R1xmuKj7O7OPyHqkPT0U-49">
          <mxGeometry y="180" width="180" height="30" as="geometry" />
        </mxCell>
        <mxCell id="R1xmuKj7O7OPyHqkPT0U-66" value="" style="shape=partialRectangle;connectable=0;fillColor=none;top=0;left=0;bottom=0;right=0;editable=1;overflow=hidden;" vertex="1" parent="R1xmuKj7O7OPyHqkPT0U-65">
          <mxGeometry width="30" height="30" as="geometry" />
        </mxCell>
        <mxCell id="R1xmuKj7O7OPyHqkPT0U-67" value="data_pagamento" style="shape=partialRectangle;connectable=0;fillColor=none;top=0;left=0;bottom=0;right=0;align=left;spacingLeft=6;overflow=hidden;" vertex="1" parent="R1xmuKj7O7OPyHqkPT0U-65">
          <mxGeometry x="30" width="150" height="30" as="geometry" />
        </mxCell>
        <mxCell id="R1xmuKj7O7OPyHqkPT0U-68" value="" style="shape=partialRectangle;collapsible=0;dropTarget=0;pointerEvents=0;fillColor=none;top=0;left=0;bottom=0;right=0;points=[[0,0.5],[1,0.5]];portConstraint=eastwest;" vertex="1" parent="R1xmuKj7O7OPyHqkPT0U-49">
          <mxGeometry y="210" width="180" height="30" as="geometry" />
        </mxCell>
        <mxCell id="R1xmuKj7O7OPyHqkPT0U-69" value="" style="shape=partialRectangle;connectable=0;fillColor=none;top=0;left=0;bottom=0;right=0;editable=1;overflow=hidden;" vertex="1" parent="R1xmuKj7O7OPyHqkPT0U-68">
          <mxGeometry width="30" height="30" as="geometry" />
        </mxCell>
        <mxCell id="R1xmuKj7O7OPyHqkPT0U-70" value="data_pagamento" style="shape=partialRectangle;connectable=0;fillColor=none;top=0;left=0;bottom=0;right=0;align=left;spacingLeft=6;overflow=hidden;" vertex="1" parent="R1xmuKj7O7OPyHqkPT0U-68">
          <mxGeometry x="30" width="150" height="30" as="geometry" />
        </mxCell>
        <mxCell id="R1xmuKj7O7OPyHqkPT0U-71" value="" style="shape=partialRectangle;collapsible=0;dropTarget=0;pointerEvents=0;fillColor=none;top=0;left=0;bottom=0;right=0;points=[[0,0.5],[1,0.5]];portConstraint=eastwest;" vertex="1" parent="R1xmuKj7O7OPyHqkPT0U-49">
          <mxGeometry y="240" width="180" height="30" as="geometry" />
        </mxCell>
        <mxCell id="R1xmuKj7O7OPyHqkPT0U-72" value="" style="shape=partialRectangle;connectable=0;fillColor=none;top=0;left=0;bottom=0;right=0;editable=1;overflow=hidden;" vertex="1" parent="R1xmuKj7O7OPyHqkPT0U-71">
          <mxGeometry width="30" height="30" as="geometry" />
        </mxCell>
        <mxCell id="R1xmuKj7O7OPyHqkPT0U-73" value="cod_aluno" style="shape=partialRectangle;connectable=0;fillColor=none;top=0;left=0;bottom=0;right=0;align=left;spacingLeft=6;overflow=hidden;" vertex="1" parent="R1xmuKj7O7OPyHqkPT0U-71">
          <mxGeometry x="30" width="150" height="30" as="geometry" />
        </mxCell>
      </root>
    </mxGraphModel>
  </diagram>
</mxfile>
